<?xml version="1.0" encoding="iso-8859-1"?>
<!DOCTYPE svg PUBLIC "-//W3C//DTD SVG 1.1//EN" "http://www.w3.org/Graphics/SVG/1.1/DTD/svg11.dtd">
<svg 
 version="1.1" xmlns="http://www.w3.org/2000/svg" xmlns:xlink="http://www.w3.org/1999/xlink" x="0px" y="0px" width="512px"
	 height="512px" viewBox="0 0 512 512" style="enable-background:new 0 0 512 512;" xml:space="preserve"
><g id="de95281e9f52527e65bb740c5900b3a7"><g></g><g fill="#ffffff"><path style="display: inline;" d="M281.733,108.68c0,11.625-9.42,21.046-21.044,21.046l0,0c-11.625,0-21.048-9.421-21.048-21.046
		V24.499c0-11.625,9.423-21.046,21.048-21.046l0,0c11.624,0,21.044,9.421,21.044,21.046V108.68z M281.733,403.318
		c0-11.624-9.42-21.043-21.044-21.043l0,0c-11.625,0-21.048,9.419-21.048,21.043v84.184c0,11.624,9.423,21.048,21.048,21.048l0,0
		c11.624,0,21.044-9.424,21.044-21.048V403.318z M29.186,234.956c-11.624,0-21.045,9.42-21.045,21.044l0,0
		c0,11.625,9.421,21.047,21.045,21.047h84.183c11.625,0,21.045-9.423,21.045-21.047l0,0c0-11.624-9.421-21.044-21.045-21.044H29.186
		z M408.008,234.956c-11.624,0-21.048,9.42-21.048,21.044l0,0c0,11.625,9.424,21.047,21.048,21.047h84.183
		c11.625,0,21.045-9.423,21.045-21.047l0,0c0-11.624-9.42-21.044-21.045-21.044H408.008z M111.873,77.421
		c-8.219-8.218-21.543-8.218-29.766,0l0,0c-8.216,8.221-8.216,21.543,0,29.765l59.532,59.527c8.219,8.217,21.54,8.217,29.759,0l0,0
		c8.219-8.221,8.219-21.542,0-29.763L111.873,77.421z M379.739,345.29c-8.22-8.219-21.54-8.219-29.763,0l0,0
		c-8.217,8.22-8.217,21.54,0,29.759l59.528,59.533c8.219,8.215,21.54,8.215,29.763,0l0,0c8.216-8.224,8.216-21.547,0-29.767
		L379.739,345.29z M82.107,404.815c-8.216,8.22-8.216,21.543,0,29.767l0,0c8.223,8.215,21.546,8.215,29.766,0l59.525-59.533
		c8.219-8.219,8.219-21.539,0-29.759l0,0c-8.219-8.219-21.54-8.219-29.759,0L82.107,404.815z"></path></g></g></svg>